<?xml version="1.0" encoding="UTF-8"?>
<svg id="VG" xmlns="http://www.w3.org/2000/svg" viewBox="0 0 512 512">
  <defs>
    <style>
      .cls-1 {
        fill: #191919;
        stroke-width: 0px;
      }
    </style>
  </defs>
  <path class="cls-1" d="M190.76,319.97c4.72-32.83,14.6-65.28,26.32-96.33,8.89-23.54,20.33-45.7,36.36-65.29,21.12-25.8,48.15-41.86,80.66-48.85,28.41-6.11,56.11-4.14,82.4,8.62,29.47,14.3,46.81,37.93,52.14,70.41,3.79,23.09.57,44.53-13.91,63.47-11.88,15.55-28.14,24.4-46.86,28.61-10.77,2.42-21.87,3.34-32.8,5.06-14.77,2.32-29.37,5.34-41.43,14.99-11.66,9.33-17.65,21.28-14.36,36.41,2.59,11.9,11.69,17.52,22.59,20.26,24.32,6.11,46.5-4.32,60.53-27.95,2-3.37,4.07-6.75,6.53-9.77,6.32-7.74,14.57-11.65,24.45-9.22,9.8,2.41,14.75,10.1,17.15,19.36,4.01,15.46,1.29,30.53-4.59,44.84-14.97,36.46-42.79,58.53-80.35,68.29-28.75,7.47-56.89,4.96-82.59-10.9-24.55-15.15-39.79-37.06-43.73-66.06-3.67-27,4-50.93,20.79-71.98,18.96-23.76,44.5-37.29,73.11-45.78,9.17-2.72,18.63-4.72,27.41-8.38,6.47-2.69,12.83-6.72,17.86-11.59,15.59-15.1,9.88-38.98-10.68-45.99-14.17-4.83-28.39-2.95-42.34,1.1-24.12,7.02-89.24,53.85-107.11,133.98-16.84,79.11,15.54,106.14,16.99,109.62,2.56,6.15.3,9.3-6.31,9.61-21.11.98-40.47-4.68-58.1-15.97-30.87-19.77-48.18-48.49-54.79-84.17-3.19-17.21-3.61-34.54-2.24-51.88.99-12.67,3.15-25.25,4.35-37.91,1.83-19.38,2.12-38.77-3.31-57.7-7.2-25.08-23.63-42.42-46.51-54.14-4.93-2.52-10.23-4.51-14.72-7.65-14.26-9.97-14.89-29.18-5.51-42.78,8.36-12.12,20.98-17.41,35.01-18.73,31.17-2.94,58.46,6.89,82.06,27.06,16.18,13.83,25.27,31.85,29.2,52.55,3.53,18.59,3.22,37.32.05,55.85-3.48,20.33-8.03,40.47-11.87,60.74-3.69,19.45-7.03,39.4-1.42,58.74,1.58,5.43,4.96,10.34,7.15,15.59.8-5.39,1.65-10.77,2.43-16.16Z"/>
</svg>